<svg id="Layer_2" data-name="Layer 2" xmlns="http://www.w3.org/2000/svg" viewBox="0 0 3096.44 1000"><defs><style>.cls-1{fill:#5f6cb2;}.cls-2{fill:#f1606f;}.cls-3{fill:#58595b;}</style></defs><title>rect_logo</title><path class="cls-1" d="M418.75,351.3H514V139.52L245,190.37V607.5S261,733,514,860.47V555.35l-95.27-.64,1.94,132.61s-58.58-36.05-84.33-90.77L337,268.26l83-14.81Z"/><path class="cls-2" d="M805,192.3,534.62,139.52v721l92.69-52.79L628.6,500h18l65,72.09L711,744.6C794.69,677.67,805,603,805,603v-65.7L769.57,500H805ZM711.64,409.24h-85V254.74l85,14.8Z"/><path class="cls-3" d="M1496.57,246.37q19.93,0,30.53,7.79a44.47,44.47,0,0,1,15.27,19.32,82.62,82.62,0,0,1,5.61,25.86q.93,14.34.93,27.41V738a26.91,26.91,0,0,1-4.36,15.27q-4.36,6.54-13.71,6.54h-53.59q-9.35,0-13.4-6.54a28.3,28.3,0,0,1-4-15.27V362.9h-3.11L1348.26,628.36q-5.61,14.35-11.84,27.74a93.93,93.93,0,0,1-15.58,23.68,69.74,69.74,0,0,1-23.06,16.51q-13.71,6.24-34.9,6.23a116.51,116.51,0,0,1-26.79-2.8,55.94,55.94,0,0,1-21.81-10.6q-10-7.79-19-22.43t-18.38-38.33L1068.46,362.9h-3.12V738a28.38,28.38,0,0,1-4,15.27q-4.07,6.54-13.4,6.54H994.3q-9.34,0-13.71-6.54A26.83,26.83,0,0,1,976.23,738V326.75q0-14.94,1.25-29.59a79.75,79.75,0,0,1,6.23-25.87,41,41,0,0,1,15.58-18.07q10.58-6.84,29.91-6.85h57.33q16.82,0,26.79,4a39.39,39.39,0,0,1,16.21,11.84,62.26,62.26,0,0,1,10,18.69q3.74,10.92,9.34,24l110.93,277.93h6.85l112.17-277.93q5.61-13.08,9.35-24a57.41,57.41,0,0,1,10-18.38A43.69,43.69,0,0,1,1414,250.73q9.64-4.35,26.48-4.36Z"/><path class="cls-3" d="M1816.86,239.51q16.83,0,29,5A69.62,69.62,0,0,1,1867,257.9a80.93,80.93,0,0,1,15.58,20.25,220.74,220.74,0,0,1,12.15,26.17l175.11,431.85a29.87,29.87,0,0,1,2.49,10.6,12.93,12.93,0,0,1-4.05,10,14.6,14.6,0,0,1-10.28,3.74h-66.68q-13.1,0-18.07-13.71l-155.17-387h-2.49l-81,203.78h77.27q12.45,0,18.07,12.46c1.25,2.91,3.21,7.38,5.92,13.4s5.39,12.15,8.1,18.38,5,12.15,6.86,17.76,2.8,9.87,2.8,12.78a19.2,19.2,0,0,1-19.94,19.94H1697.22l-35.52,89.11q-5,13.08-17.45,13.09H1575.7q-14.33,0-14.33-13.71a26.84,26.84,0,0,1,1.87-10.6L1737.1,304.32q11.22-28,29.29-46.42T1816.86,239.51Z"/><path class="cls-3" d="M2415.73,246.37q4.35,0,11.21,3.43t6.86,17.75v48.61q0,7.48-2.18,12.15a18.33,18.33,0,0,1-5,6.86,13.94,13.94,0,0,1-5.92,2.8,26.57,26.57,0,0,1-5,.63H2255.57V738.66q0,14.36-6.54,17.76t-10.91,3.43h-57.33q-3.73,0-10.59-3.43t-6.85-17.76V338.6H2003.19a26.48,26.48,0,0,1-5-.63,13.89,13.89,0,0,1-5.92-2.8,18.22,18.22,0,0,1-5-6.86q-2.19-4.67-2.18-12.15V267.55q0-14.33,6.86-17.75t11.21-3.43Z"/><path class="cls-3" d="M2840.1,246.37c2.49,0,6,1.24,10.59,3.74s6.85,8.52,6.85,18.07v48.61q0,14.34-6.85,18.07c-4.58,2.49-8.1,3.74-10.59,3.74H2481.78q-3.74,0-10.28-3.43T2465,317.41V268.8q0-15,6.55-18.69t10.28-3.74ZM2558.43,610.92q0,31.77,16.51,44.24t45.18,12.46h219.35q10,0,14,6.24a26.83,26.83,0,0,1,4.05,14.95v49.85a26.81,26.81,0,0,1-4.05,15q-4,6.24-14,6.23H2618.25q-44.86,0-74.47-12.77t-47-36.46q-17.46-23.67-24.62-57T2465,579.14V496.88a49.72,49.72,0,0,1,2.5-15.27,33.54,33.54,0,0,1,8.41-13.71,44.33,44.33,0,0,1,15.58-9.66q9.64-3.74,24-3.74H2837q9.34,0,13.4,6.24a26.83,26.83,0,0,1,4,14.95v49.23a28.41,28.41,0,0,1-4,15.27q-4.07,6.54-13.4,6.54H2558.43Z"/></svg>