<svg id="Layer_2" data-name="Layer 2" xmlns="http://www.w3.org/2000/svg" viewBox="0 0 1000 1000"><defs><style>.cls-1{fill:#5f6cb2;}.cls-2{fill:#f1606f;}.cls-3{fill:#58595b;}</style></defs><title>sq_logo</title><path class="cls-1" d="M393.79,235.69h95.27V23.91L220,74.76V491.89s16.09,125.52,269.07,253V439.75l-95.27-.65,1.93,132.61S337.14,535.66,311.4,481l.64-328.3,83-14.8Z"/><path class="cls-2" d="M780,76.69,509.66,23.92v721l92.69-52.8,1.28-307.68h18l65,72.09L686,629c83.68-66.93,94-141.57,94-141.57V421.73l-35.4-37.33H780ZM686.68,293.63h-85V139.13l85,14.81Z"/><path class="cls-3" d="M365.84,787.3q6.9,0,10.56,2.69a15.46,15.46,0,0,1,5.28,6.68,28.44,28.44,0,0,1,1.94,9c.22,3.3.32,6.46.32,9.48V957.32a9.34,9.34,0,0,1-1.5,5.28,5.29,5.29,0,0,1-4.74,2.26H359.16a5,5,0,0,1-4.63-2.26,9.78,9.78,0,0,1-1.4-5.28V827.6h-1.08l-37.49,91.79q-1.95,5-4.1,9.59a32.37,32.37,0,0,1-5.38,8.19,24.08,24.08,0,0,1-8,5.71A29.2,29.2,0,0,1,285,945a40.7,40.7,0,0,1-9.26-1,19.46,19.46,0,0,1-7.54-3.66,29.21,29.21,0,0,1-6.58-7.76,85.16,85.16,0,0,1-6.35-13.26L217.8,827.6h-1.08V957.32a9.78,9.78,0,0,1-1.4,5.28,5,5,0,0,1-4.63,2.26H192.16a5.27,5.27,0,0,1-4.74-2.26,9.27,9.27,0,0,1-1.51-5.28V815.1q0-5.18.43-10.24a27.74,27.74,0,0,1,2.15-8.94,14.18,14.18,0,0,1,5.39-6.25q3.66-2.37,10.35-2.37h19.82a25.25,25.25,0,0,1,9.27,1.4,13.71,13.71,0,0,1,5.6,4.09,21.54,21.54,0,0,1,3.45,6.47c.86,2.51,1.94,5.28,3.23,8.29L284,903.66h2.37l38.79-96.11c1.29-3,2.37-5.78,3.23-8.29a19.92,19.92,0,0,1,3.45-6.36,15,15,0,0,1,5.49-4.09,22.64,22.64,0,0,1,9.16-1.51Z"/><path class="cls-3" d="M476.6,784.93a26.32,26.32,0,0,1,10,1.72,24,24,0,0,1,7.33,4.64,27.85,27.85,0,0,1,5.39,7,75.5,75.5,0,0,1,4.2,9.05l60.55,149.33a10.12,10.12,0,0,1,.86,3.67,4.46,4.46,0,0,1-1.4,3.45,5,5,0,0,1-3.55,1.29H536.94q-4.53,0-6.25-4.74L477,826.52h-.86l-28,70.46h26.72c2.87,0,5,1.44,6.25,4.31q.64,1.51,2.05,4.64t2.8,6.35q1.39,3.24,2.37,6.14a15.7,15.7,0,0,1,1,4.42,6.64,6.64,0,0,1-6.9,6.9H435.23L423,960.55q-1.74,4.53-6,4.53h-23.7q-5,0-5-4.74a9.34,9.34,0,0,1,.65-3.67L449,807.34a47.92,47.92,0,0,1,10.13-16.05Q465.39,784.93,476.6,784.93Z"/><path class="cls-3" d="M683.69,787.3a9.37,9.37,0,0,1,3.88,1.18c1.58.8,2.37,2.84,2.37,6.15v16.8a10.08,10.08,0,0,1-.75,4.21,6.5,6.5,0,0,1-1.73,2.37,5,5,0,0,1-2,1,9.58,9.58,0,0,1-1.73.21H628.31V957.54q0,5-2.26,6.14a8.6,8.6,0,0,1-3.77,1.18H602.45a9.09,9.09,0,0,1-3.66-1.18q-2.37-1.18-2.37-6.14V819.19H541a9.58,9.58,0,0,1-1.73-.21,4.92,4.92,0,0,1-2-1,6.39,6.39,0,0,1-1.73-2.37,10.08,10.08,0,0,1-.75-4.21v-16.8c0-3.31.79-5.35,2.37-6.15A9.37,9.37,0,0,1,541,787.3Z"/><path class="cls-3" d="M830.44,787.3a8.59,8.59,0,0,1,3.66,1.29c1.58.86,2.37,2.95,2.37,6.25v16.81q0,5-2.37,6.25a8.59,8.59,0,0,1-3.66,1.29H706.53A8.42,8.42,0,0,1,703,818q-2.26-1.18-2.27-6.15v-16.8q0-5.17,2.27-6.47a8,8,0,0,1,3.55-1.29ZM733,913.36q0,11,5.71,15.3T754.37,933h75.85q3.45,0,4.85,2.16a9.21,9.21,0,0,1,1.4,5.17v17.24a9.24,9.24,0,0,1-1.4,5.17c-.93,1.44-2.55,2.15-4.85,2.15H753.73q-15.53,0-25.76-4.41a38.76,38.76,0,0,1-16.26-12.61,50.62,50.62,0,0,1-8.52-19.72,123,123,0,0,1-2.48-25.75V873.93a17.07,17.07,0,0,1,.87-5.28,11.48,11.48,0,0,1,2.91-4.74,15.1,15.1,0,0,1,5.38-3.34,23,23,0,0,1,8.3-1.3H829.36a5.12,5.12,0,0,1,4.64,2.16,9.32,9.32,0,0,1,1.4,5.17v17a9.84,9.84,0,0,1-1.4,5.28,5,5,0,0,1-4.64,2.27H733Z"/></svg>